<?xml version="1.0" standalone="no"?>
<!DOCTYPE svg PUBLIC "-//W3C//DTD SVG 20010904//EN"
 "http://www.w3.org/TR/2001/REC-SVG-20010904/DTD/svg10.dtd">
<svg version="1.0" xmlns="http://www.w3.org/2000/svg"
 width="500.000000pt" height="500.000000pt" viewBox="0 0 500.000000 500.000000"
 preserveAspectRatio="xMidYMid meet">

<g transform="translate(0.000000,500.000000) scale(0.100000,-0.100000)"
fill="#000000" stroke="none">
<path d="M110 2760 l0 -1370 330 0 330 0 2 825 3 825 309 -825 310 -825 266 0
267 0 131 353 c73 194 132 357 132 363 0 14 -264 744 -270 744 -3 0 -61 -140
-129 -311 -68 -170 -126 -307 -130 -304 -3 4 -178 430 -388 948 l-381 942
-391 3 -391 2 0 -1370z"/>
<path d="M2423 4113 c-4 -10 -106 -265 -228 -568 l-221 -550 128 -350 c70
-192 131 -361 136 -375 7 -20 33 43 151 360 79 212 146 390 150 395 3 6 8
-359 11 -810 l5 -820 328 -3 327 -2 0 76 c0 41 3 74 8 72 4 -2 36 -18 72 -37
108 -56 316 -122 307 -97 -2 6 -68 190 -148 408 l-144 398 -47 0 -48 0 0 130
0 130 -287 787 c-157 434 -288 797 -290 808 -4 18 4 24 51 38 31 10 56 20 56
23 0 2 -70 4 -155 4 -139 0 -156 -2 -162 -17z"/>
<path d="M4695 3773 c20 -54 62 -169 93 -255 32 -89 62 -158 70 -158 15 0 15
9 -3 115 -21 116 -65 227 -125 313 -27 39 -54 73 -60 77 -5 3 6 -38 25 -92z"/>
<path d="M4312 1487 c-167 -62 -297 -114 -291 -116 18 -6 175 19 244 39 81 23
170 62 241 104 53 31 127 86 114 85 -3 -1 -141 -51 -308 -112z"/>
<path d="M770 1048 c0 -7 15 -67 34 -133 48 -173 51 -172 117 53 15 51 17 48
54 -81 38 -132 49 -128 97 38 21 72 38 131 38 133 0 1 -7 2 -15 2 -8 0 -18
-16 -24 -37 -5 -21 -17 -67 -26 -103 -9 -36 -20 -68 -24 -73 -4 -4 -21 41 -38
100 -40 147 -51 146 -93 -3 -19 -65 -36 -112 -38 -105 -2 6 -16 57 -31 113
-15 56 -33 104 -39 106 -7 2 -12 -2 -12 -10z"/>
<path d="M1290 925 l0 -135 65 0 c37 0 65 4 65 10 0 6 -25 10 -55 10 l-55 0 0
50 0 50 50 0 c64 0 66 18 3 22 l-48 3 0 50 0 50 53 3 c75 4 65 22 -13 22 l-65
0 0 -135z"/>
<path d="M1610 925 l0 -137 71 4 c60 3 74 8 90 27 25 31 24 57 -5 86 -23 23
-23 24 -5 41 10 9 19 29 19 44 0 43 -32 64 -106 68 l-64 4 0 -137z m133 84
c28 -34 3 -63 -57 -67 l-46 -3 0 52 0 52 42 -6 c27 -4 49 -14 61 -28z m-5
-105 c50 -35 12 -94 -60 -94 l-38 0 0 55 0 55 38 0 c21 0 48 -7 60 -16z"/>
<path d="M2210 924 l0 -136 76 4 c73 3 77 5 111 42 34 36 35 41 31 99 -4 50
-9 64 -31 83 -32 27 -86 44 -144 44 l-43 0 0 -136z m157 89 c26 -17 36 -43 36
-95 0 -70 -44 -108 -124 -108 l-39 0 0 116 0 116 52 -7 c29 -4 63 -14 75 -22z"/>
<path d="M2620 925 l0 -135 70 0 c84 0 94 18 13 22 l-58 3 -3 48 -3 47 50 0
c68 0 75 18 9 22 l-53 3 0 50 0 50 58 3 c81 4 71 22 -13 22 l-70 0 0 -135z"/>
<path d="M2966 1039 c-22 -17 -26 -28 -24 -57 3 -38 5 -39 93 -79 28 -13 41
-25 43 -42 8 -51 -63 -69 -102 -26 -28 30 -36 31 -36 6 0 -51 102 -70 145 -26
48 47 18 106 -62 121 -66 12 -79 84 -19 100 25 6 66 -10 66 -26 0 -6 7 -10 15
-10 27 0 14 30 -22 49 -33 17 -67 13 -97 -10z"/>
<path d="M3300 925 c0 -83 4 -135 10 -135 6 0 10 52 10 135 0 83 -4 135 -10
135 -6 0 -10 -52 -10 -135z"/>
<path d="M3569 1037 c-42 -29 -59 -60 -59 -115 0 -54 24 -97 66 -117 85 -40
171 2 189 93 l7 32 -71 0 c-41 0 -71 -4 -71 -10 0 -5 25 -10 56 -10 53 0 55
-1 49 -22 -4 -13 -20 -36 -37 -52 -26 -24 -37 -27 -70 -23 -49 7 -75 29 -88
75 -12 46 -4 80 28 115 35 37 101 38 138 2 36 -36 62 -31 32 7 -43 52 -113 63
-169 25z"/>
<path d="M3950 925 c0 -112 3 -135 15 -135 11 0 15 21 17 107 l3 108 70 -108
c38 -59 75 -107 82 -107 10 0 13 32 13 136 0 104 -3 135 -12 132 -9 -3 -15
-38 -18 -109 l-5 -104 -70 108 c-38 59 -75 107 -82 107 -10 0 -13 -32 -13
-135z"/>
</g>
</svg>
